<svg width="24" height="24" viewBox="0 0 24 24" fill="none" xmlns="http://www.w3.org/2000/svg">
<path fill-rule="evenodd" clip-rule="evenodd" d="M11.6699 5.06095C9.56975 2.45433 5.81764 2.29744 3.53 4.72059C1.92725 6.41827 1.51058 8.89645 2.27994 11H6.38099L8.99999 5.76394L12 11.763L13.5 8.76394L14.618 11H21.7201C22.4894 8.8965 22.0728 6.41827 20.4701 4.72059C18.1824 2.29749 14.4303 2.45433 12.3301 5.06095L12 5.47059L11.6699 5.06095ZM20.4965 13H13.618L12 16.236L8.99999 10.236L7.61802 13H3.50352C3.5123 13.0094 3.52113 13.0188 3.53 13.0283L11.9958 21.9955L11.9999 22H12L20.47 13.0283C20.4789 13.0189 20.4877 13.0095 20.4965 13" fill="white"/>
</svg>
