<svg width="24" height="24" viewBox="0 0 24 24" fill="none" xmlns="http://www.w3.org/2000/svg">
<path d="M7.2 2H9.8C13 2 15 4 15 7.2V11.25H8.75C8.34 11.25 8 11.59 8 12C8 12.41 8.34 12.75 8.75 12.75H15V16.8C15 20 13 22 9.8 22H7.21C4.01 22 2.01 20 2.01 16.8V7.2C2 4 4 2 7.2 2Z" fill="#FF0707"/>
<path d="M19.4401 11.3475L17.3701 9.2775C17.2201 9.1275 17.1501 8.9375 17.1501 8.7475C17.1501 8.5575 17.2201 8.3575 17.3701 8.2175C17.6601 7.9275 18.1401 7.9275 18.4301 8.2175L21.7801 11.5675C22.0701 11.8575 22.0701 12.3375 21.7801 12.6275L18.4301 15.9775C18.1401 16.2675 17.6601 16.2675 17.3701 15.9775C17.0801 15.6875 17.0801 15.2075 17.3701 14.9175L19.4401 12.8475H15.0001V11.3475H19.4401Z" fill="#FF0707"/>
</svg>
