<svg width="24" height="24" viewBox="0 0 24 24" fill="none" xmlns="http://www.w3.org/2000/svg">
<g clip-path="url(#clip0_234_587)">
<mask id="mask0_234_587" style="mask-type:luminance" maskUnits="userSpaceOnUse" x="0" y="0" width="24" height="24">
<path d="M24 0H0V24H24V0Z" fill="white"/>
</mask>
<g mask="url(#mask0_234_587)">
<path d="M21.9299 6.76099L18.5599 20.291C18.3199 21.301 17.4199 22.001 16.3799 22.001H3.23989C1.72989 22.001 0.649903 20.5209 1.0999 19.0709L5.30989 5.55103C5.59989 4.61103 6.46991 3.96094 7.44991 3.96094H19.7499C20.6999 3.96094 21.4899 4.54094 21.8199 5.34094C22.0099 5.77094 22.0499 6.26099 21.9299 6.76099Z" stroke="white" stroke-width="1.5" stroke-miterlimit="10"/>
<path d="M16 22H20.78C22.07 22 23.08 20.91 22.99 19.62L22 6" stroke="white" stroke-width="1.5" stroke-miterlimit="10" stroke-linecap="round" stroke-linejoin="round"/>
<path d="M9.67969 6.38049L10.7197 2.06055" stroke="white" stroke-width="1.5" stroke-miterlimit="10" stroke-linecap="round" stroke-linejoin="round"/>
<path d="M16.3799 6.39075L17.3199 2.05078" stroke="white" stroke-width="1.5" stroke-miterlimit="10" stroke-linecap="round" stroke-linejoin="round"/>
<path d="M7.69995 12H15.7" stroke="white" stroke-width="1.5" stroke-miterlimit="10" stroke-linecap="round" stroke-linejoin="round"/>
<path d="M6.69995 16H14.7" stroke="white" stroke-width="1.5" stroke-miterlimit="10" stroke-linecap="round" stroke-linejoin="round"/>
</g>
</g>
<defs>
<clipPath id="clip0_234_587">
<rect width="24" height="24" fill="white"/>
</clipPath>
</defs>
</svg>
