<svg width="24" height="25" viewBox="0 0 24 25" fill="none" xmlns="http://www.w3.org/2000/svg">
<g clip-path="url(#clip0_478_1620)">
<mask id="mask0_478_1620" style="mask-type:luminance" maskUnits="userSpaceOnUse" x="0" y="-2" width="24" height="25">
<path d="M24 -2H0V23H24V-2Z" fill="white"/>
</mask>
<g mask="url(#mask0_478_1620)">
<path d="M12 0.083252C9.38 0.083252 7.25 2.302 7.25 5.03117C7.25 7.70825 9.26 9.87492 11.88 9.96867C11.96 9.95825 12.04 9.95825 12.1 9.96867C12.12 9.96867 12.13 9.96867 12.15 9.96867C12.16 9.96867 12.16 9.96867 12.17 9.96867C14.73 9.87492 16.74 7.70825 16.75 5.03117C16.75 2.302 14.62 0.083252 12 0.083252Z" fill="#808B9B"/>
<path d="M17.08 12.7395C14.29 10.802 9.73996 10.802 6.92996 12.7395C5.65996 13.6249 4.95996 14.8228 4.95996 16.1041C4.95996 17.3853 5.65996 18.5728 6.91996 19.4478C8.31996 20.427 10.16 20.9166 12 20.9166C13.84 20.9166 15.68 20.427 17.08 19.4478C18.34 18.5624 19.04 17.3749 19.04 16.0833C19.03 14.802 18.34 13.6145 17.08 12.7395Z" fill="#808B9B"/>
</g>
</g>
<defs>
<clipPath id="clip0_478_1620">
<rect width="24" height="25" fill="white"/>
</clipPath>
</defs>
</svg>
