<svg width="38" height="37" viewBox="0 0 38 37" fill="none" xmlns="http://www.w3.org/2000/svg">
<g clip-path="url(#clip0_68_681)">
<mask id="mask0_68_681" style="mask-type:luminance" maskUnits="userSpaceOnUse" x="0" y="0" width="38" height="37">
<path d="M37.4536 0.547363H0.185547V36.7792H37.4536V0.547363Z" fill="white"/>
</mask>
<g mask="url(#mask0_68_681)">
<path d="M25.4191 34.5148C26.9199 34.5148 28.1366 33.332 28.1366 31.8729C28.1366 30.4138 26.9199 29.231 25.4191 29.231C23.9183 29.231 22.7017 30.4138 22.7017 31.8729C22.7017 33.332 23.9183 34.5148 25.4191 34.5148Z" fill="white"/>
<path d="M12.9963 34.5148C14.4971 34.5148 15.7137 33.332 15.7137 31.8729C15.7137 30.4138 14.4971 29.231 12.9963 29.231C11.4955 29.231 10.2788 30.4138 10.2788 31.8729C10.2788 33.332 11.4955 34.5148 12.9963 34.5148Z" fill="white"/>
<path d="M7.70114 6.49556L7.39057 10.1942C7.32846 10.9038 7.90301 11.4925 8.63284 11.4925H32.4067C33.0589 11.4925 33.6024 11.0094 33.649 10.3754C33.8509 7.70329 31.7545 5.52938 29.006 5.52938H9.92169C9.76641 4.86512 9.45584 4.23107 8.97447 3.70269C8.19805 2.90257 7.11106 2.43457 5.99302 2.43457H3.29109C2.65443 2.43457 2.12646 2.94785 2.12646 3.56682C2.12646 4.18578 2.65443 4.69906 3.29109 4.69906H5.99302C6.4744 4.69906 6.92472 4.89532 7.25082 5.22744C7.57691 5.57466 7.7322 6.02756 7.70114 6.49556Z" fill="white"/>
<path d="M32.0344 13.7568H8.21387C7.56168 13.7568 7.03372 14.2399 6.9716 14.8589L6.41258 21.4259C6.19519 24.0074 8.27599 26.2115 10.9313 26.2115H28.1989C30.5282 26.2115 32.5779 24.3547 32.7487 22.0902L33.2612 15.04C33.3233 14.3456 32.7643 13.7568 32.0344 13.7568Z" fill="white"/>
</g>
</g>
<defs>
<clipPath id="clip0_68_681">
<rect width="37.268" height="36.2319" fill="white" transform="translate(0.185547 0.547363)"/>
</clipPath>
</defs>
</svg>
