<svg width="24" height="24" viewBox="0 0 24 24" fill="none" xmlns="http://www.w3.org/2000/svg">
<g clip-path="url(#clip0_698_677)">
<path fill-rule="evenodd" clip-rule="evenodd" d="M12 1.5H11.974C11.9359 1.50016 11.8978 1.5025 11.86 1.507C11.7823 1.51531 11.7049 1.52665 11.628 1.541C11.3791 1.58983 11.1348 1.66009 10.898 1.751C10.296 1.977 9.463 2.402 8.4 3.2C7.61 3.792 6.323 4.14 5.102 4.324C4.41656 4.42477 3.72561 4.48355 3.033 4.5H2V12C2 13.656 2.678 15.14 3.6 16.397C4.523 17.652 5.73 18.735 6.9 19.613C8.35578 20.6959 9.917 21.6293 11.56 22.399L11.584 22.409L11.588 22.411L11.61 22.421C11.7371 22.4748 11.874 22.5017 12.012 22.4999C12.1501 22.4982 12.2862 22.4679 12.412 22.411L12.416 22.409L12.439 22.399C12.5685 22.3398 12.6972 22.2788 12.825 22.216C13.083 22.09 13.449 21.906 13.885 21.666C15.0037 21.0583 16.0781 20.3723 17.1 19.613C18.27 18.735 19.477 17.653 20.4 16.397C21.322 15.14 22 13.656 22 12V4.5H20.967L20.85 4.497C20.1965 4.47658 19.5448 4.41849 18.898 4.323C17.677 4.14 16.39 3.794 15.6 3.2C14.537 2.402 13.704 1.977 13.101 1.751C12.8642 1.66009 12.6199 1.58983 12.371 1.541C12.2569 1.52102 12.1417 1.50766 12.026 1.501H12.012L12.006 1.5H12ZM11 7V11H7V13H11V17H13V13H17V11H13V7H11Z" fill="white"/>
</g>
<defs>
<clipPath id="clip0_698_677">
<rect width="24" height="24" fill="white"/>
</clipPath>
</defs>
</svg>
